<?xml version="1.0" encoding="utf-8"?>
<!DOCTYPE svg PUBLIC "-//W3C//DTD SVG 1.1//EN" "http://www.w3.org/Graphics/SVG/1.1/DTD/svg11.dtd">
<svg version="1.1" id="Layer_1" xmlns="http://www.w3.org/2000/svg" xmlns:xlink="http://www.w3.org/1999/xlink" x="0px" y="0px"
	 viewBox="0 0 196 196" enable-background="new 0 0 196 196" xml:space="preserve">
<g>
	<path d="M39.168,45.545C39.168,25.066,54.438,8,74.018,8l79.401,0.18c1.797,0,3.413,1.617,3.413,3.413v3.593
		c0,1.976-1.616,3.413-3.413,3.413H133.48v165.988c0,1.796-1.437,3.413-3.413,3.413h-3.773c-1.797,0-3.413-1.617-3.413-3.413V18.599
		H94.856v165.988c0,1.796-1.617,3.413-3.413,3.413H87.85c-1.796,0-3.413-1.617-3.413-3.413V83.269h-7.904
		C56.234,83.269,39.168,66.743,39.168,45.545z"/>
</g>
</svg>
